<?xml version="1.0" standalone="no"?>
<!DOCTYPE svg PUBLIC "-//W3C//DTD SVG 20010904//EN"
 "http://www.w3.org/TR/2001/REC-SVG-20010904/DTD/svg10.dtd">
<svg version="1.0" xmlns="http://www.w3.org/2000/svg"
 width="96.000000pt" height="89.000000pt" viewBox="0 0 96.000000 89.000000"
 preserveAspectRatio="xMidYMid meet">
<metadata>
Created by potrace 1.10, written by Peter Selinger 2001-2011
</metadata>
<g transform="translate(0.000000,89.000000) scale(0.100000,-0.100000)"
fill="#000000" stroke="none">
<path d="M416 856 c-22 -8 -51 -23 -65 -33 -30 -22 -81 -116 -81 -149 0 -16
-8 -23 -32 -28 -18 -3 -45 -18 -60 -33 l-28 -27 0 -229 0 -229 29 -29 29 -29
272 0 272 0 29 29 29 29 0 225 0 225 -26 31 c-15 18 -39 33 -60 37 -30 6 -35
10 -40 45 -20 123 -155 206 -268 165z m144 -103 c18 -16 35 -44 39 -65 l9 -38
-128 0 -128 0 9 38 c12 57 58 92 119 92 40 0 56 -5 80 -27z m-26 -294 c33 -26
37 -86 6 -114 -15 -13 -20 -31 -20 -67 l0 -48 -40 0 -40 0 0 48 c0 36 -5 54
-20 67 -31 28 -27 88 6 114 15 12 39 21 54 21 15 0 39 -9 54 -21z"/>
</g>
</svg>
