<?xml version="1.0" standalone="no"?>
<!DOCTYPE svg PUBLIC "-//W3C//DTD SVG 20010904//EN"
 "http://www.w3.org/TR/2001/REC-SVG-20010904/DTD/svg10.dtd">
<svg version="1.0" xmlns="http://www.w3.org/2000/svg"
 width="113.000000pt" height="113.000000pt" viewBox="0 0 113.000000 113.000000"
 preserveAspectRatio="xMidYMid meet">
<metadata>
Created by potrace 1.10, written by Peter Selinger 2001-2011
</metadata>
<g transform="translate(0.000000,113.000000) scale(0.100000,-0.100000)"
fill="#000000" stroke="none">
<path d="M441 1056 c-23 -35 -48 -66 -54 -69 -7 -3 -45 2 -85 11 l-73 16 -56
-57 -57 -56 14 -68 c7 -37 15 -73 17 -80 3 -6 -27 -33 -66 -59 l-71 -47 0 -82
0 -82 65 -44 c35 -24 66 -49 69 -56 3 -6 -2 -35 -10 -65 -7 -29 -14 -62 -14
-73 0 -11 25 -45 56 -76 l55 -56 75 17 c86 20 84 21 143 -68 l42 -62 77 0 77
0 45 70 c25 38 50 71 55 73 6 2 42 -3 82 -13 l72 -17 59 61 60 61 -14 55 c-23
95 -21 100 54 150 l67 45 3 77 3 77 -71 47 c-78 52 -80 56 -56 155 l14 57 -59
58 -58 57 -58 -12 c-32 -7 -68 -15 -79 -18 -18 -4 -30 8 -68 66 l-46 71 -84 0
-84 0 -41 -64z m163 -67 c58 -98 109 -125 207 -106 77 14 93 2 79 -58 -25
-107 -6 -154 85 -212 61 -38 60 -61 -4 -102 -26 -17 -56 -40 -66 -51 -22 -25
-31 -103 -16 -155 9 -34 8 -42 -7 -57 -15 -15 -23 -16 -57 -7 -52 15 -130 6
-155 -16 -11 -10 -34 -40 -51 -66 -40 -63 -64 -64 -101 -6 -56 89 -109 111
-208 88 -65 -15 -71 -6 -64 95 8 99 1 113 -82 174 -63 47 -65 63 -14 97 94 63
114 103 97 196 -9 49 -8 60 6 74 13 14 24 14 71 5 57 -11 104 -4 133 20 9 7
34 37 55 65 21 29 47 53 56 53 10 0 26 -14 36 -31z"/>
<path d="M485 736 c-37 -17 -80 -62 -94 -99 -18 -48 -13 -125 11 -168 52 -93
178 -125 266 -66 126 83 107 284 -31 336 -39 15 -116 13 -152 -3z m144 -120
c6 -7 14 -27 17 -44 5 -26 1 -36 -24 -62 -35 -35 -69 -38 -105 -10 -50 39 -42
110 15 134 34 15 77 6 97 -18z"/>
</g>
</svg>
