<?xml version="1.0" standalone="no"?>
<!DOCTYPE svg PUBLIC "-//W3C//DTD SVG 20010904//EN"
 "http://www.w3.org/TR/2001/REC-SVG-20010904/DTD/svg10.dtd">
<svg version="1.0" xmlns="http://www.w3.org/2000/svg"
 width="254.000000pt" height="208.000000pt" viewBox="0 0 254.000000 208.000000"
 preserveAspectRatio="xMidYMid meet">
<metadata>
Created by potrace 1.10, written by Peter Selinger 2001-2011
</metadata>
<g transform="translate(0.000000,208.000000) scale(0.100000,-0.100000)"
fill="#000000" stroke="none">
<path d="M744 1493 c75 -98 189 -248 255 -334 l119 -156 -226 -260 c-125 -143
-233 -267 -241 -276 -12 -16 -6 -17 90 -16 l104 0 180 209 c99 115 185 208
190 206 6 -1 81 -95 168 -209 l158 -207 205 0 c161 0 204 3 198 12 -4 7 -122
165 -262 350 -173 229 -251 341 -246 350 5 7 98 117 209 243 110 127 206 238
214 248 13 16 7 17 -87 17 l-100 0 -167 -190 c-92 -104 -170 -190 -175 -190
-5 0 -73 85 -152 190 l-143 190 -213 0 -213 0 135 -177z m596 -425 c201 -265
367 -486 368 -490 2 -4 -21 -8 -52 -8 l-55 0 -371 484 c-203 267 -370 487
-370 490 0 3 26 6 58 6 l57 0 365 -482z"/>
</g>
</svg>
